<svg width="20" height="20" viewBox="0 0 20 20" fill="none" xmlns="http://www.w3.org/2000/svg">
<path d="M10 0C12.6521 2.6996e-05 15.1959 1.05337 17.0713 2.92871C18.9466 4.80407 20 7.34786 20 10C20 11.9778 19.4133 13.9112 18.3145 15.5557C17.2157 17.2001 15.6543 18.4824 13.8271 19.2393C11.9999 19.9961 9.98864 20.1935 8.04883 19.8076C6.10912 19.4217 4.32718 18.4697 2.92871 17.0713C1.53026 15.6728 0.578276 13.8909 0.192383 11.9512C-0.193469 10.0114 0.00386584 8.00011 0.760742 6.17285C1.51762 4.34566 2.79989 2.78433 4.44434 1.68555C6.08883 0.586733 8.02219 0 10 0ZM7 5.5V15.5H8.62207V11.7705H10.5742C11.3024 11.7705 11.9212 11.6467 12.4297 11.3994C12.9423 11.1522 13.3325 10.7973 13.5996 10.335C13.8666 9.87257 14 9.3183 14 8.67285C14 8.05939 13.8667 7.51422 13.5996 7.03809C13.3325 6.55747 12.9423 6.18222 12.4297 5.91211C11.9212 5.63738 11.3024 5.5 10.5742 5.5H7ZM10.5742 6.87402C11.0008 6.87402 11.3455 6.95852 11.6084 7.12793C11.8712 7.29732 12.0629 7.52153 12.1836 7.80078C12.3085 8.07542 12.3711 8.3707 12.3711 8.68652C12.3711 9.02077 12.3086 9.31909 12.1836 9.58008C12.063 9.83626 11.871 10.0372 11.6084 10.1836C11.3455 10.3301 11.0008 10.4043 10.5742 10.4043H8.62207V6.87402H10.5742Z" fill="#6155F5"/>
</svg>
