<svg width="11" height="12" viewBox="0 0 11 12" fill="none" xmlns="http://www.w3.org/2000/svg">
<path d="M5.5 6C6.08574 6 6.65832 5.82405 7.14534 5.49441C7.63237 5.16477 8.01195 4.69623 8.2361 4.14805C8.46026 3.59987 8.51891 2.99667 8.40463 2.41473C8.29036 1.83279 8.0083 1.29824 7.59412 0.878681C7.17995 0.459123 6.65225 0.173401 6.07777 0.0576455C5.50329 -0.0581101 4.90782 0.00129986 4.36667 0.228363C3.82552 0.455426 3.36299 0.839943 3.03757 1.33329C2.71215 1.82664 2.53846 2.40666 2.53846 3C2.53846 3.79565 2.85048 4.55871 3.40588 5.12132C3.96127 5.68393 4.71455 6 5.5 6ZM5.5 6.85714C3.66438 6.85714 0 8.00572 0 10.2857V12H11V10.2857C11 8.00572 7.33563 6.85714 5.5 6.85714Z" fill="white"/>
</svg>
