<svg width="16" height="16" viewBox="0 0 16 16" fill="none" xmlns="http://www.w3.org/2000/svg">
<path d="M8.00037 0C10.1218 6.18685e-05 12.1564 0.842772 13.6566 2.34277C15.1569 3.84306 16.0004 5.87827 16.0004 8C16.0004 9.58221 15.5307 11.1288 14.6517 12.4443C13.7728 13.7598 12.5235 14.7851 11.0619 15.3906C9.60022 15.9961 7.99153 16.1552 6.43982 15.8467C4.88802 15.538 3.46195 14.776 2.34314 13.6572C1.22432 12.5384 0.462369 11.1124 0.153687 9.56055C-0.154934 8.00878 0.00330854 6.40021 0.608765 4.93848C1.21427 3.47666 2.24043 2.22769 3.55603 1.34863C4.87159 0.469643 6.41817 0 8.00037 0ZM5.59998 4.40039V12.4004H6.89783V9.41699H8.45935C9.04187 9.41699 9.53698 9.31788 9.94373 9.12012C10.3538 8.9224 10.6656 8.63829 10.8793 8.26855C11.093 7.89859 11.2006 7.45496 11.2006 6.93848C11.2006 6.44763 11.093 6.01181 10.8793 5.63086C10.6655 5.24629 10.3539 4.94559 9.94373 4.72949C9.53697 4.50974 9.04189 4.40039 8.45935 4.40039H5.59998ZM8.45935 5.49902C8.80063 5.49902 9.07719 5.56662 9.28748 5.70215C9.49752 5.8376 9.65095 6.01703 9.74744 6.24023C9.84737 6.45994 9.89682 6.69656 9.89685 6.94922C9.89685 7.21662 9.84741 7.45527 9.74744 7.66406C9.65095 7.86902 9.49756 8.03029 9.28748 8.14746C9.07719 8.26468 8.80063 8.32324 8.45935 8.32324H6.89783V5.49902H8.45935Z" fill="white"/>
</svg>
