<svg width="24" height="24" viewBox="0 0 24 24" fill="none" xmlns="http://www.w3.org/2000/svg">
<g clip-path="url(#clip0_115_1581)">
<path d="M9.86042e-05 11.9859C-0.0101076 14.5503 2.06049 16.6374 4.62492 16.6476C5.80593 16.6523 6.94439 16.2068 7.80851 15.4017L14.728 18.5259C14.6799 18.7846 14.6536 19.0468 14.6491 19.31C14.641 21.892 16.7275 23.9918 19.3095 24C21.8916 24.0082 23.9914 21.9216 23.9996 19.3395C24.0078 16.7575 21.9212 14.6577 19.3391 14.6495C17.7965 14.6446 16.3507 15.4011 15.4751 16.6712L8.97407 13.7358C9.43583 12.6208 9.43761 11.3684 8.97908 10.252L15.4711 7.30165C16.933 9.41597 19.8321 9.94482 21.9464 8.48295C24.0607 7.02107 24.5895 4.12204 23.1277 2.00771C21.6658 -0.10661 18.7667 -0.63546 16.6524 0.826416C15.3932 1.69703 14.6427 3.1311 14.6451 4.66194C14.6493 4.92543 14.676 5.18803 14.725 5.44697L7.82349 8.58309C5.95364 6.82729 3.01449 6.91976 1.25869 8.7896C0.446082 9.65507 -0.00430224 10.7988 9.86042e-05 11.9859Z" fill="#757575"/>
</g>
<defs>
<clipPath id="clip0_115_1581">
<rect width="24" height="24" fill="white"/>
</clipPath>
</defs>
</svg>
